<svg xmlns="http://www.w3.org/2000/svg" xmlns:xlink="http://www.w3.org/1999/xlink" width="1080" zoomAndPan="magnify" viewBox="0 0 810 809.999993" height="1080" preserveAspectRatio="xMidYMid meet" version="1.0"><defs><clipPath id="17f0fe900e"><path d="M 189.871094 224.976562 L 336.074219 224.976562 L 336.074219 371.183594 L 189.871094 371.183594 Z M 189.871094 224.976562 " clip-rule="nonzero"/></clipPath><clipPath id="c77fccc73e"><path d="M 262.972656 224.976562 C 222.597656 224.976562 189.871094 257.707031 189.871094 298.078125 C 189.871094 338.453125 222.597656 371.183594 262.972656 371.183594 C 303.34375 371.183594 336.074219 338.453125 336.074219 298.078125 C 336.074219 257.707031 303.34375 224.976562 262.972656 224.976562 Z M 262.972656 224.976562 " clip-rule="nonzero"/></clipPath><clipPath id="034e3d3d30"><path d="M 65.355469 38 L 295 38 L 295 464 L 65.355469 464 Z M 65.355469 38 " clip-rule="nonzero"/></clipPath><clipPath id="14300b90f4"><path d="M 81 380 L 295 380 L 295 691.988281 L 81 691.988281 Z M 81 380 " clip-rule="nonzero"/></clipPath><clipPath id="2c39ecc882"><path d="M 534 346 L 762.960938 346 L 762.960938 772 L 534 772 Z M 534 346 " clip-rule="nonzero"/></clipPath><clipPath id="5874a1bbe7"><path d="M 534 118.03125 L 749 118.03125 L 749 430 L 534 430 Z M 534 118.03125 " clip-rule="nonzero"/></clipPath><clipPath id="8c0d3fbd16"><path d="M 262 253 L 579 253 L 579 569 L 262 569 Z M 262 253 " clip-rule="nonzero"/></clipPath><clipPath id="3723fd3bf4"><path d="M 308.929688 253.542969 L 578.214844 522.828125 L 532.25 568.796875 L 262.960938 299.511719 Z M 308.929688 253.542969 " clip-rule="nonzero"/></clipPath></defs><g clip-path="url(#17f0fe900e)"><g clip-path="url(#c77fccc73e)"><path fill="#ffffff" d="M 189.871094 224.976562 L 336.074219 224.976562 L 336.074219 371.183594 L 189.871094 371.183594 Z M 189.871094 224.976562 " fill-opacity="1" fill-rule="nonzero"/></g></g><g clip-path="url(#034e3d3d30)"><path fill="#233dff" d="M 65.476562 463.007812 L 294.421875 234.0625 L 294.421875 38.144531 L 65.476562 267.089844 Z M 65.476562 463.007812 " fill-opacity="1" fill-rule="nonzero"/></g><g clip-path="url(#14300b90f4)"><path fill="#211d1d" d="M 81.0625 478.59375 L 294.425781 691.949219 L 294.425781 496.050781 L 179.015625 380.640625 Z M 81.0625 478.59375 " fill-opacity="1" fill-rule="nonzero"/></g><g clip-path="url(#2c39ecc882)"><path fill="#233dff" d="M 665.691406 444.933594 L 534.707031 575.917969 L 534.707031 771.835938 L 763.652344 542.890625 L 763.652344 346.972656 Z M 665.691406 444.933594 " fill-opacity="1" fill-rule="nonzero"/></g><g clip-path="url(#5874a1bbe7)"><path fill="#211d1d" d="M 534.707031 118.03125 L 534.707031 313.925781 L 650.109375 429.347656 L 748.074219 331.382812 Z M 534.707031 118.03125 " fill-opacity="1" fill-rule="nonzero"/></g><g clip-path="url(#8c0d3fbd16)"><g clip-path="url(#3723fd3bf4)"><path fill="#233dff" d="M 308.929688 253.542969 L 578.261719 522.875 L 532.292969 568.839844 L 262.960938 299.511719 Z M 308.929688 253.542969 " fill-opacity="1" fill-rule="nonzero"/></g></g></svg>