<svg xmlns="http://www.w3.org/2000/svg" xmlns:xlink="http://www.w3.org/1999/xlink" width="1080" zoomAndPan="magnify" viewBox="0 0 810 809.999993" height="1080" preserveAspectRatio="xMidYMid meet" version="1.0"><defs><g/><clipPath id="8eb182fb6f"><path d="M 310.882812 215.375 L 372.125 215.375 L 372.125 276.617188 L 310.882812 276.617188 Z M 310.882812 215.375 " clip-rule="nonzero"/></clipPath><clipPath id="13e8864cac"><path d="M 341.503906 215.375 C 324.59375 215.375 310.882812 229.085938 310.882812 245.996094 C 310.882812 262.90625 324.59375 276.617188 341.503906 276.617188 C 358.414062 276.617188 372.125 262.90625 372.125 245.996094 C 372.125 229.085938 358.414062 215.375 341.503906 215.375 Z M 341.503906 215.375 " clip-rule="nonzero"/></clipPath><clipPath id="66caf06591"><path d="M 258.722656 137 L 355 137 L 355 316 L 258.722656 316 Z M 258.722656 137 " clip-rule="nonzero"/></clipPath><clipPath id="cd3f14f490"><path d="M 265 280 L 355 280 L 355 410.992188 L 265 410.992188 Z M 265 280 " clip-rule="nonzero"/></clipPath><clipPath id="16fb1a8e1a"><path d="M 455 266 L 551.171875 266 L 551.171875 445 L 455 445 Z M 455 266 " clip-rule="nonzero"/></clipPath><clipPath id="5577fef475"><path d="M 455 170.574219 L 545 170.574219 L 545 301 L 455 301 Z M 455 170.574219 " clip-rule="nonzero"/></clipPath><clipPath id="1e72a70f3d"><path d="M 341 227 L 474 227 L 474 360 L 341 360 Z M 341 227 " clip-rule="nonzero"/></clipPath><clipPath id="f4e2c71cf2"><path d="M 360.753906 227.34375 L 473.554688 340.144531 L 454.300781 359.398438 L 341.5 246.597656 Z M 360.753906 227.34375 " clip-rule="nonzero"/></clipPath></defs><g clip-path="url(#8eb182fb6f)"><g clip-path="url(#13e8864cac)"><path fill="#ffffff" d="M 310.882812 215.375 L 372.125 215.375 L 372.125 276.617188 L 310.882812 276.617188 Z M 310.882812 215.375 " fill-opacity="1" fill-rule="nonzero"/></g></g><g clip-path="url(#66caf06591)"><path fill="#233dff" d="M 258.777344 315.085938 L 299.8125 274.050781 L 354.679688 219.179688 L 354.679688 137.113281 L 258.777344 233.015625 Z M 258.777344 315.085938 " fill-opacity="1" fill-rule="nonzero"/></g><g clip-path="url(#cd3f14f490)"><path fill="#211d1d" d="M 265.304688 321.613281 L 354.679688 410.988281 L 354.679688 328.925781 L 306.335938 280.582031 Z M 265.304688 321.613281 " fill-opacity="1" fill-rule="nonzero"/></g><g clip-path="url(#16fb1a8e1a)"><path fill="#233dff" d="M 510.203125 307.511719 L 455.332031 362.382812 L 455.332031 444.449219 L 551.234375 348.546875 L 551.234375 266.476562 Z M 510.203125 307.511719 " fill-opacity="1" fill-rule="nonzero"/></g><g clip-path="url(#5577fef475)"><path fill="#211d1d" d="M 455.332031 170.574219 L 455.332031 252.632812 L 503.671875 300.984375 L 544.710938 259.949219 Z M 455.332031 170.574219 " fill-opacity="1" fill-rule="nonzero"/></g><g clip-path="url(#1e72a70f3d)"><g clip-path="url(#f4e2c71cf2)"><path fill="#233dff" d="M 360.753906 227.34375 L 473.574219 340.164062 L 454.320312 359.417969 L 341.5 246.597656 Z M 360.753906 227.34375 " fill-opacity="1" fill-rule="nonzero"/></g></g><g fill="#233dff" fill-opacity="1"><g transform="translate(45.113272, 587.125379)"><g><path d="M 17.359375 0 C 17.742188 -2.175781 17.9375 -4.539062 17.9375 -7.09375 L 17.9375 -127.53125 L 37.109375 -127.53125 L 87.921875 -47.5625 L 87.921875 -121.015625 C 87.921875 -124.523438 87.601562 -126.695312 86.96875 -127.53125 L 112.859375 -127.53125 C 112.535156 -124.96875 112.375 -122.15625 112.375 -119.09375 L 112.375 0 L 92.4375 0 L 42.375 -76.8125 L 42.375 0 Z M 17.359375 0 "/></g></g></g><g fill="#233dff" fill-opacity="1"><g transform="translate(175.382892, 587.125379)"><g><path d="M 80.640625 -23.015625 C 84.597656 -23.015625 87.347656 -23.394531 88.890625 -24.15625 L 89.265625 -24.0625 L 88.3125 0 L 16.5 0 L 16.5 -128.203125 C 18.21875 -128.078125 20.132812 -127.976562 22.25 -127.90625 L 28.953125 -127.71875 C 33.429688 -127.59375 38.289062 -127.53125 43.53125 -127.53125 C 58.164062 -127.53125 72.644531 -127.785156 86.96875 -128.296875 C 86.269531 -122.671875 85.921875 -115.160156 85.921875 -105.765625 C 85.921875 -104.742188 85.984375 -103.976562 86.109375 -103.46875 L 85.921875 -103.171875 C 82.585938 -104.128906 77.851562 -104.609375 71.71875 -104.609375 L 41.515625 -104.609375 L 41.515625 -80.15625 L 64.25 -80.15625 C 71.28125 -80.15625 75.5 -80.347656 76.90625 -80.734375 L 77.1875 -57.046875 C 74.113281 -57.367188 70.148438 -57.53125 65.296875 -57.53125 L 41.515625 -57.53125 L 41.515625 -23.015625 Z M 80.640625 -23.015625 "/></g></g></g><g fill="#233dff" fill-opacity="1"><g transform="translate(273.732101, 587.125379)"><g><path d="M 74.703125 -118.234375 C 76.035156 -121.046875 76.703125 -123.132812 76.703125 -124.5 C 76.703125 -125.875 76.578125 -126.882812 76.328125 -127.53125 L 110.84375 -127.53125 C 110.144531 -126.757812 109.25 -125.847656 108.15625 -124.796875 C 107.070312 -123.742188 105.859375 -122.484375 104.515625 -121.015625 C 101.316406 -117.429688 98.375 -113.273438 95.6875 -108.546875 L 72.578125 -66.359375 L 94.15625 -25.796875 L 96.75 -20.515625 C 101.601562 -10.421875 105.726562 -3.582031 109.125 0 L 77.859375 0 C 77.597656 -2.238281 76.507812 -5.242188 74.59375 -9.015625 L 55.8125 -45.0625 C 42.570312 -18.28125 35.796875 -4.472656 35.484375 -3.640625 C 35.160156 -2.554688 34.898438 -1.34375 34.703125 0 L 3.453125 0 C 5.816406 -2.425781 8.242188 -5.847656 10.734375 -10.265625 L 22.25 -30.6875 L 42.671875 -65.296875 L 15.828125 -115.828125 C 12.941406 -121.265625 10.414062 -125.164062 8.25 -127.53125 L 40.46875 -127.53125 C 40.207031 -126.882812 40.078125 -126.179688 40.078125 -125.421875 C 40.078125 -123.691406 40.878906 -121.296875 42.484375 -118.234375 L 58.484375 -86.203125 Z M 74.703125 -118.234375 "/></g></g></g><g fill="#211d1d" fill-opacity="1"><g transform="translate(388.15578, 587.125379)"><g><path d="M 42.375 0.578125 C 36.238281 0.191406 28.953125 0 20.515625 0 L 17.453125 0 L 17.453125 -128.015625 C 21.410156 -127.691406 24.222656 -127.53125 25.890625 -127.53125 L 29.828125 -127.53125 C 34.867188 -127.53125 39.050781 -127.785156 42.375 -128.296875 L 42.375 -77.1875 L 87.453125 -77.1875 L 87.453125 -128.015625 C 92.753906 -127.691406 97.914062 -127.53125 102.9375 -127.53125 C 107.957031 -127.53125 111.101562 -127.785156 112.375 -128.296875 L 112.375 0.578125 C 109.3125 0.191406 103.238281 0 94.15625 0 L 87.453125 0 L 87.453125 -54.171875 L 42.375 -54.171875 Z M 42.375 0.578125 "/></g></g></g><g fill="#211d1d" fill-opacity="1"><g transform="translate(518.904633, 587.125379)"><g><path d="M 89.171875 -128.015625 C 93.140625 -127.691406 96.429688 -127.53125 99.046875 -127.53125 L 107.015625 -127.53125 C 109.691406 -127.53125 112.503906 -127.785156 115.453125 -128.296875 L 115.453125 -49 C 115.453125 -33.269531 110.6875 -20.644531 101.15625 -11.125 C 92.144531 -2.113281 80.832031 2.390625 67.21875 2.390625 C 52.320312 2.390625 40.269531 -1.472656 31.0625 -9.203125 C 20.769531 -17.898438 15.625 -30.429688 15.625 -46.796875 L 15.625 -128.015625 C 20.9375 -127.691406 25.941406 -127.53125 30.640625 -127.53125 C 35.335938 -127.53125 39.21875 -127.785156 42.28125 -128.296875 L 42.28125 -45.546875 C 42.28125 -37.492188 44.742188 -31.226562 49.671875 -26.75 C 54.273438 -22.65625 60.023438 -20.609375 66.921875 -20.609375 C 77.148438 -20.609375 83.960938 -25.851562 87.359375 -36.34375 C 88.566406 -40.113281 89.171875 -44.78125 89.171875 -50.34375 Z M 89.171875 -128.015625 "/></g></g></g><g fill="#211d1d" fill-opacity="1"><g transform="translate(650.036909, 587.125379)"><g><path d="M 97.078125 -9.34375 C 92.378906 -5.601562 86.289062 -2.710938 78.8125 -0.671875 C 71.332031 1.367188 62.144531 2.390625 51.25 2.390625 C 40.351562 2.390625 28.769531 1.398438 16.5 -0.578125 L 16.5 -126.953125 C 28.894531 -128.929688 39.644531 -129.921875 48.75 -129.921875 C 57.863281 -129.921875 65.34375 -129.054688 71.1875 -127.328125 C 77.039062 -125.609375 81.820312 -123.28125 85.53125 -120.34375 C 92.820312 -114.644531 96.46875 -107.273438 96.46875 -98.234375 C 96.46875 -89.191406 93.171875 -81.695312 86.578125 -75.75 C 94.378906 -73.320312 100.421875 -68.71875 104.703125 -61.9375 C 108.609375 -55.863281 110.5625 -49.132812 110.5625 -41.75 C 110.5625 -34.375 109.488281 -28.0625 107.34375 -22.8125 C 105.195312 -17.570312 101.773438 -13.082031 97.078125 -9.34375 Z M 41.90625 -79.296875 C 44.582031 -78.847656 47.9375 -78.625 51.96875 -78.625 C 56 -78.625 59.304688 -79.148438 61.890625 -80.203125 C 64.484375 -81.265625 66.484375 -82.59375 67.890625 -84.1875 C 70.191406 -86.8125 71.34375 -90.457031 71.34375 -95.125 C 71.34375 -104.90625 65.585938 -109.796875 54.078125 -109.796875 C 49.222656 -109.796875 45.164062 -109.601562 41.90625 -109.21875 Z M 56.09375 -58.78125 C 50.71875 -58.78125 45.988281 -58.425781 41.90625 -57.71875 L 41.90625 -20.046875 C 46.375 -18.890625 51.066406 -18.3125 55.984375 -18.3125 C 60.910156 -18.3125 65.242188 -18.898438 68.984375 -20.078125 C 72.722656 -21.265625 75.875 -22.882812 78.4375 -24.9375 C 83.613281 -29.15625 86.203125 -34.523438 86.203125 -41.046875 C 86.203125 -52.867188 76.164062 -58.78125 56.09375 -58.78125 Z M 56.09375 -58.78125 "/></g></g></g></svg>